<?xml version="1.0" encoding="utf-8"?>
<!-- Generator: Adobe Illustrator 26.3.1, SVG Export Plug-In . SVG Version: 6.00 Build 0)  -->
<svg version="1.1" id="レイヤー_1" xmlns="http://www.w3.org/2000/svg" xmlns:xlink="http://www.w3.org/1999/xlink" x="0px"
	 y="0px" viewBox="0 0 319.5 76.5" style="enable-background:new 0 0 319.5 76.5;" xml:space="preserve">
<style type="text/css">
	.st0{fill:#FFFFFF;}
</style>
<path id="パス_42" class="st0" d="M3.7,58.9H1.5L1,60.6H0.2l2.1-6.4h0.7L5,60.6H4.2L3.7,58.9z M1.7,58.2h1.7l-0.9-2.9L1.7,58.2z
	 M7,59.9h3v0.7H6.1V60L9,54.9H6.2v-0.7h3.8v0.6L7,59.9z M15.5,54.2v4.5c0,0.5-0.2,1-0.5,1.4c-0.4,0.4-0.9,0.5-1.4,0.5
	c-0.5,0-1.1-0.1-1.4-0.5c-0.4-0.4-0.5-0.9-0.5-1.4v-4.6h0.8v4.5c0,0.3,0.1,0.7,0.3,1c0.2,0.2,0.6,0.3,0.9,0.3c0.3,0,0.7-0.1,0.9-0.3
	c0.2-0.3,0.3-0.6,0.3-1v-4.5H15.5z M18.3,54.2l1.7,5.2l1.7-5.2h1v6.4h-0.8v-2.5l0.1-2.5l-1.7,5h-0.6l-1.7-5l0.1,2.5v2.5h-0.8v-6.4
	H18.3z M27.7,58.9h-2.2L25,60.6h-0.8l2.1-6.4h0.7l2.1,6.4h-0.8L27.7,58.9z M25.7,58.2h1.7l-0.9-2.9L25.7,58.2z M33.8,59.9h2.5v0.7
	H33v-6.4h0.8V59.9z M40.9,58.9h-2.2l-0.5,1.7h-0.8l2.1-6.4h0.7l2.1,6.4h-0.8L40.9,58.9z M38.9,58.2h1.7l-0.9-2.9L38.9,58.2z
	 M47.8,60.6H47l-2.6-4.9v4.9h-0.8v-6.4h0.8l2.6,5v-5h0.8V60.6z M49.7,60.6v-6.4h1.5c0.7,0,1.3,0.2,1.7,0.7c0.4,0.6,0.7,1.3,0.6,2
	v1.1c0,0.7-0.2,1.4-0.6,2c-0.5,0.5-1.1,0.7-1.8,0.7H49.7z M50.5,54.9v5h0.6c0.5,0,0.9-0.1,1.2-0.5c0.3-0.4,0.4-0.9,0.4-1.4v-1.1
	c0-0.5-0.1-1-0.4-1.5c-0.3-0.3-0.7-0.5-1.2-0.5H50.5z M60.8,59c0-0.3-0.1-0.5-0.3-0.7c-0.3-0.2-0.6-0.4-0.9-0.5
	c-0.4-0.1-0.7-0.3-1-0.5c-0.2-0.2-0.4-0.4-0.5-0.6c-0.1-0.2-0.2-0.5-0.2-0.8c0-0.5,0.2-0.9,0.5-1.3c0.4-0.3,0.8-0.5,1.3-0.5
	c0.3,0,0.7,0.1,1,0.3c0.3,0.2,0.5,0.4,0.7,0.7c0.2,0.3,0.2,0.6,0.2,1h-0.8c0-0.3-0.1-0.7-0.3-0.9c-0.2-0.2-0.5-0.3-0.8-0.3
	c-0.3,0-0.6,0.1-0.8,0.3c-0.2,0.2-0.3,0.5-0.3,0.8c0,0.3,0.1,0.5,0.3,0.7c0.3,0.2,0.6,0.4,0.9,0.5c0.5,0.1,1,0.4,1.4,0.8
	c0.3,0.3,0.4,0.8,0.4,1.2c0,0.5-0.2,0.9-0.5,1.2c-0.4,0.3-0.9,0.5-1.4,0.5c-0.4,0-0.7-0.1-1-0.2c-0.3-0.2-0.6-0.4-0.7-0.7
	c-0.2-0.3-0.3-0.7-0.3-1h0.8c0,0.3,0.1,0.7,0.3,0.9c0.2,0.2,0.6,0.3,0.9,0.3c0.3,0,0.6-0.1,0.8-0.3C60.7,59.5,60.8,59.3,60.8,59z
	 M67,54.2v4.5c0,0.5-0.2,1-0.5,1.4c-0.4,0.4-0.9,0.5-1.4,0.5c-0.5,0-1.1-0.1-1.5-0.5c-0.4-0.4-0.5-0.9-0.5-1.4v-4.6h0.8v4.5
	c0,0.3,0.1,0.7,0.3,1c0.2,0.2,0.6,0.3,0.9,0.3c0.3,0,0.7-0.1,0.9-0.3c0.2-0.3,0.3-0.6,0.3-1v-4.5H67z M70.7,58h-1.1v2.6h-0.8v-6.4
	h1.8c0.5,0,1,0.1,1.4,0.5c0.3,0.4,0.5,0.9,0.5,1.4c0,0.4-0.1,0.7-0.3,1c-0.2,0.3-0.4,0.5-0.7,0.7l1.2,2.7v0.1h-0.9L70.7,58z
	 M69.6,57.3h1c0.3,0,0.6-0.1,0.8-0.3c0.2-0.2,0.3-0.6,0.3-0.9c0-0.8-0.4-1.2-1.1-1.2h-1L69.6,57.3z M75.9,59.4l1.5-5.2h0.9l-2,6.4
	h-0.7l-2-6.4h0.9L75.9,59.4z M82.7,57.6h-2.3v2.3h2.6v0.7h-3.4v-6.4H83v0.7h-2.6V57h2.3L82.7,57.6z M86.3,57.4l1.3-3.2h0.9l-1.8,4
	v2.4h-0.8v-2.4l-1.8-4H85L86.3,57.4z M3.7,72.9H1.5L1,74.6H0.2l2.1-6.4h0.7L5,74.6H4.2L3.7,72.9z M1.7,72.2h1.7l-0.9-2.9L1.7,72.2z
	 M7.1,73.9h2.3v0.7H6.2V74l2.2-3.5H6.2v-0.7h3.1v0.6L7.1,73.9z M13.3,74.2c-0.3,0.3-0.7,0.5-1.1,0.5c-0.4,0-0.7-0.1-1-0.4
	c-0.2-0.4-0.4-0.8-0.3-1.3v-3.1h0.8v3c0,0.7,0.2,1.1,0.7,1.1c0.4,0,0.8-0.2,1-0.6v-3.5H14v4.8h-0.7L13.3,74.2z M16.5,69.8l0,0.4
	c0.3-0.3,0.7-0.5,1.1-0.5c0.5,0,0.9,0.2,1.1,0.7c0.3-0.4,0.7-0.7,1.2-0.7c0.9,0,1.3,0.5,1.3,1.6v3.2h-0.8v-3.1c0-0.3,0-0.5-0.2-0.8
	c-0.2-0.2-0.4-0.3-0.6-0.3c-0.2,0-0.4,0.1-0.6,0.3c-0.2,0.2-0.2,0.4-0.3,0.7v3.2h-0.8v-3.2c0-0.7-0.3-1-0.8-1
	c-0.4,0-0.7,0.2-0.8,0.6v3.6h-0.8v-4.8H16.5z M25.5,74.6c-0.1-0.2-0.1-0.3-0.1-0.5c-0.2,0.4-0.6,0.6-1.1,0.6c-0.4,0-0.7-0.1-1-0.4
	c-0.3-0.3-0.4-0.6-0.4-1c0-0.4,0.2-0.9,0.5-1.2c0.4-0.3,0.9-0.5,1.3-0.4h0.6v-0.5c0.1-0.4-0.2-0.7-0.5-0.8c-0.1,0-0.2,0-0.2,0
	c-0.2,0-0.4,0.1-0.6,0.2c-0.1,0.1-0.2,0.3-0.2,0.5h-0.8c0-0.2,0.1-0.5,0.2-0.7c0.1-0.2,0.3-0.4,0.6-0.5c0.3-0.1,0.5-0.2,0.8-0.2
	c0.4,0,0.8,0.1,1.1,0.4c0.3,0.3,0.4,0.7,0.4,1.1v2.4c0,0.3,0,0.6,0.1,1v0.1H25.5z M24.5,74c0.2,0,0.4-0.1,0.5-0.2
	c0.2-0.1,0.3-0.2,0.4-0.4v-1.1h-0.4c-0.3,0-0.6,0.1-0.9,0.2c-0.2,0.2-0.3,0.4-0.3,0.7c0,0.2,0,0.4,0.2,0.6
	C24.1,73.9,24.3,74,24.5,74L24.5,74z M31.4,73.9h2.5v0.7h-3.3v-6.4h0.8V73.9z M37.8,74.6c-0.1-0.2-0.1-0.3-0.1-0.5
	c-0.2,0.4-0.6,0.6-1.1,0.6c-0.4,0-0.7-0.1-1-0.4c-0.3-0.3-0.4-0.6-0.4-1c0-0.4,0.2-0.9,0.5-1.2c0.4-0.3,0.9-0.5,1.3-0.4h0.6v-0.5
	c0.1-0.4-0.2-0.7-0.5-0.8c-0.1,0-0.2,0-0.2,0c-0.2,0-0.4,0.1-0.6,0.2c-0.1,0.1-0.2,0.3-0.2,0.5h-0.8c0-0.2,0.1-0.5,0.2-0.7
	c0.1-0.2,0.3-0.4,0.6-0.5c0.3-0.1,0.5-0.2,0.8-0.2c0.4,0,0.8,0.1,1.1,0.4c0.3,0.3,0.4,0.7,0.4,1.1v2.4c0,0.3,0,0.6,0.1,1v0.1H37.8z
	 M36.7,74c0.2,0,0.4-0.1,0.5-0.2c0.2-0.1,0.3-0.2,0.4-0.4v-1.1h-0.4c-0.3,0-0.6,0.1-0.9,0.2c-0.2,0.2-0.3,0.4-0.3,0.7
	c0,0.2,0,0.4,0.2,0.6C36.3,73.9,36.5,74,36.7,74L36.7,74z M40.9,69.8l0,0.5c0.3-0.4,0.7-0.6,1.2-0.6c0.8,0,1.3,0.6,1.3,1.7v3.2h-0.8
	v-3.1c0-0.3,0-0.6-0.2-0.8c-0.1-0.2-0.3-0.3-0.6-0.2c-0.2,0-0.4,0.1-0.5,0.2c-0.2,0.1-0.3,0.3-0.4,0.5v3.5h-0.8v-4.8H40.9z M44.9,72
	c0-0.6,0.1-1.2,0.4-1.7c0.3-0.4,0.7-0.6,1.2-0.6c0.4,0,0.8,0.2,1.1,0.6v-2.5h0.8v6.8h-0.7l0-0.5c-0.2,0.4-0.6,0.6-1.1,0.6
	c-0.5,0-0.9-0.2-1.2-0.6c-0.3-0.5-0.5-1-0.4-1.6V72z M45.7,72.4c0,0.4,0.1,0.8,0.2,1.2c0.2,0.3,0.5,0.4,0.8,0.4
	c0.4,0,0.7-0.2,0.9-0.6V71c-0.1-0.3-0.5-0.6-0.9-0.6c-0.3,0-0.6,0.1-0.8,0.4c-0.2,0.4-0.3,0.8-0.2,1.2V72.4z M57.4,74.6
	c-0.3-0.2-0.6-0.5-0.9-0.8L56,73.2c0.5-0.7,0.8-1.4,1-2.2l-0.6-0.2c-0.1,0.7-0.4,1.4-0.8,2l-1.9-1.9c0.4-0.1,0.8-0.4,1.2-0.6
	c0.3-0.3,0.5-0.7,0.5-1.2c0-0.8-0.7-1.4-1.8-1.4c-0.6-0.1-1.2,0.2-1.6,0.7c-0.2,0.2-0.2,0.5-0.2,0.8c0,0.5,0.2,1,0.6,1.3l0.3,0.3
	c-0.4,0.2-0.8,0.4-1.2,0.7c-0.4,0.4-0.6,0.9-0.6,1.4c0,0.5,0.2,1,0.5,1.3c0.5,0.4,1.1,0.6,1.7,0.6c0.5,0,0.9-0.1,1.4-0.3
	c0.4-0.2,0.8-0.4,1.1-0.8l0.2,0.2c0.2,0.2,0.4,0.4,0.6,0.7H57.4z M52.8,70c-0.3-0.2-0.4-0.5-0.4-0.9c0-0.6,0.4-0.9,1.1-0.9
	s1.1,0.4,1.1,0.9c0,0.4-0.2,0.7-0.5,0.9c-0.3,0.2-0.6,0.3-0.9,0.4L52.8,70z M55.1,73.3c-0.5,0.5-1.2,0.9-2,0.9c-1,0-1.6-0.5-1.6-1.3
	c0-0.4,0.2-0.8,0.5-1c0.3-0.3,0.7-0.5,1-0.6L55.1,73.3z M63.9,74.6h-0.8v-3h-2.6v3h-0.8v-6.4h0.8v2.8h2.6v-2.8h0.8L63.9,74.6z
	 M65.6,72c0-0.6,0.1-1.2,0.5-1.6c0.3-0.4,0.8-0.6,1.3-0.6c0.5,0,1,0.2,1.3,0.6c0.4,0.5,0.5,1,0.5,1.6v0.5c0,0.6-0.1,1.2-0.5,1.6
	c-0.7,0.7-1.8,0.8-2.5,0.2c0,0-0.1-0.1-0.1-0.1c-0.4-0.5-0.5-1-0.5-1.6L65.6,72z M66.3,72.4c0,0.4,0.1,0.8,0.3,1.2
	c0.2,0.3,0.5,0.4,0.8,0.4c0.7,0,1-0.5,1.1-1.5V72c0-0.4-0.1-0.8-0.3-1.2c-0.2-0.3-0.5-0.4-0.8-0.4c-0.3,0-0.6,0.2-0.8,0.4
	c-0.2,0.3-0.3,0.7-0.3,1.1V72.4z M73.2,74.2c-0.3,0.3-0.7,0.5-1.1,0.5c-0.4,0-0.7-0.1-1-0.4c-0.2-0.4-0.4-0.8-0.3-1.3v-3.1h0.8v3
	c0,0.7,0.2,1.1,0.7,1.1c0.4,0,0.8-0.2,1-0.6v-3.5H74v4.8h-0.7L73.2,74.2z M78,73.4c0-0.2-0.1-0.3-0.2-0.4c-0.2-0.2-0.5-0.3-0.7-0.4
	c-0.3-0.1-0.6-0.3-0.9-0.4c-0.2-0.1-0.3-0.3-0.4-0.4c-0.1-0.2-0.1-0.4-0.1-0.6c0-0.4,0.1-0.7,0.4-1c0.6-0.5,1.6-0.5,2.2,0
	c0.3,0.3,0.4,0.6,0.4,1h-0.8c0-0.2-0.1-0.4-0.2-0.5c-0.1-0.2-0.3-0.2-0.5-0.2c-0.2,0-0.4,0.1-0.5,0.2c-0.1,0.1-0.2,0.3-0.2,0.5
	c0,0.1,0,0.3,0.1,0.4c0.2,0.2,0.4,0.3,0.7,0.4c0.4,0.1,0.8,0.4,1.2,0.7c0.2,0.2,0.3,0.5,0.3,0.8c0,0.4-0.1,0.7-0.4,1
	c-0.3,0.3-0.7,0.4-1.1,0.4c-0.4,0-0.9-0.1-1.2-0.4c-0.3-0.3-0.5-0.7-0.5-1.1h0.8c0,0.4,0.3,0.8,0.8,0.8c0,0,0.1,0,0.1,0
	c0.2,0,0.4,0,0.6-0.2C77.9,73.7,78,73.6,78,73.4L78,73.4z M82,74.7c-0.5,0-1-0.2-1.4-0.5c-0.3-0.4-0.5-1-0.5-1.6V72
	c0-0.6,0.1-1.2,0.5-1.7c0.3-0.4,0.8-0.6,1.3-0.6c0.5,0,0.9,0.2,1.2,0.5c0.3,0.5,0.5,1.1,0.4,1.7v0.5h-2.7v0.1c0,0.4,0.1,0.8,0.3,1.1
	c0.2,0.2,0.5,0.4,0.8,0.3c0.2,0,0.4,0,0.6-0.1c0.2-0.1,0.4-0.2,0.5-0.4l0.4,0.5C83.2,74.5,82.6,74.7,82,74.7L82,74.7z M81.9,70.4
	c-0.3,0-0.6,0.1-0.7,0.3c-0.2,0.3-0.3,0.7-0.3,1h1.9v-0.1c0-0.3-0.1-0.7-0.2-1C82.4,70.5,82.2,70.4,81.9,70.4L81.9,70.4z M88.6,74.6
	h-0.8v-6.4h0.8V74.6z M91.2,69.8l0,0.5c0.3-0.4,0.7-0.6,1.2-0.6c0.8,0,1.3,0.6,1.3,1.7v3.2h-0.8v-3.1c0-0.3,0-0.6-0.2-0.8
	c-0.1-0.2-0.3-0.3-0.6-0.2c-0.2,0-0.4,0.1-0.5,0.2c-0.2,0.1-0.3,0.3-0.4,0.5v3.5h-0.8v-4.8H91.2z M96.7,73.4l0.9-3.6h0.8L97,74.6
	h-0.6L95,69.8h0.8L96.7,73.4z M101.4,74.7c-0.5,0-1-0.2-1.4-0.5c-0.3-0.4-0.5-1-0.5-1.6V72c0-0.6,0.1-1.2,0.5-1.7
	c0.3-0.4,0.8-0.6,1.3-0.6c0.5,0,0.9,0.2,1.2,0.5c0.3,0.5,0.5,1.1,0.4,1.7v0.5h-2.7v0.1c0,0.4,0.1,0.8,0.3,1.1
	c0.2,0.2,0.5,0.4,0.8,0.3c0.2,0,0.4,0,0.6-0.1c0.2-0.1,0.4-0.2,0.5-0.4l0.4,0.5C102.6,74.5,102,74.7,101.4,74.7L101.4,74.7z
	 M101.3,70.4c-0.3,0-0.6,0.1-0.7,0.3c-0.2,0.3-0.3,0.7-0.3,1h1.9v-0.1c0-0.3-0.1-0.7-0.2-1C101.8,70.5,101.6,70.4,101.3,70.4
	L101.3,70.4z M106.8,73.4c0-0.2-0.1-0.3-0.2-0.4c-0.2-0.2-0.5-0.3-0.7-0.4c-0.3-0.1-0.6-0.3-0.9-0.4c-0.2-0.1-0.3-0.3-0.4-0.4
	c-0.1-0.2-0.1-0.4-0.1-0.6c0-0.4,0.1-0.7,0.4-1c0.6-0.5,1.6-0.5,2.2,0c0.3,0.3,0.4,0.6,0.4,1h-0.8c0-0.2-0.1-0.4-0.2-0.5
	c-0.1-0.2-0.3-0.2-0.5-0.2c-0.2,0-0.4,0.1-0.5,0.2c-0.1,0.1-0.2,0.3-0.2,0.5c0,0.1,0,0.3,0.1,0.4c0.2,0.2,0.4,0.3,0.7,0.4
	c0.4,0.1,0.8,0.4,1.2,0.7c0.2,0.2,0.3,0.5,0.3,0.8c0,0.4-0.1,0.7-0.4,1c-0.3,0.3-0.7,0.4-1.1,0.4c-0.4,0-0.9-0.1-1.2-0.4
	c-0.3-0.3-0.5-0.7-0.5-1.1h0.8c0,0.4,0.3,0.8,0.8,0.8c0,0,0.1,0,0.1,0c0.2,0,0.4,0,0.6-0.2C106.7,73.7,106.8,73.6,106.8,73.4
	L106.8,73.4z M110.1,68.7v1.2h0.7v0.6h-0.7v2.9c0,0.1,0,0.3,0.1,0.4c0.1,0.1,0.2,0.2,0.3,0.1c0.1,0,0.2,0,0.3-0.1l0,0.7
	c-0.2,0.1-0.4,0.1-0.5,0.1c-0.3,0-0.5-0.1-0.7-0.3c-0.2-0.3-0.3-0.6-0.2-0.9v-3h-0.7v-0.6h0.7v-1.2H110.1z M113.1,74.6h-0.8v-4.8
	h0.8V74.6z M113.2,68.6c0,0.1,0,0.2-0.1,0.3c-0.1,0.1-0.2,0.1-0.3,0.1c-0.1,0-0.2,0-0.3-0.1c-0.1-0.1-0.1-0.2-0.1-0.3
	c0-0.1,0-0.2,0.1-0.3c0.2-0.2,0.5-0.2,0.7,0c0,0,0,0,0,0C113.2,68.3,113.2,68.5,113.2,68.6z M114.7,72c0-0.6,0.1-1.2,0.4-1.7
	c0.3-0.4,0.7-0.6,1.2-0.6c0.5,0,0.9,0.2,1.1,0.6l0-0.5h0.7v4.8c0,0.5-0.1,1-0.5,1.4c-0.3,0.3-0.8,0.5-1.3,0.5
	c-0.3,0-0.5-0.1-0.8-0.2c-0.3-0.1-0.5-0.2-0.7-0.4l0.3-0.5c0.3,0.3,0.7,0.5,1.1,0.5c0.6,0,1-0.4,1-1.1v-0.6
	c-0.2,0.4-0.6,0.6-1.1,0.6c-0.5,0-0.9-0.2-1.2-0.6c-0.3-0.5-0.5-1-0.4-1.6L114.7,72z M115.5,72.4c0,0.4,0.1,0.8,0.2,1.2
	c0.2,0.3,0.5,0.4,0.8,0.4c0.4,0,0.7-0.2,0.9-0.6V71c-0.1-0.4-0.5-0.6-0.9-0.6c-0.3,0-0.6,0.1-0.8,0.4c-0.2,0.4-0.3,0.8-0.2,1.2
	L115.5,72.4z M122.3,74.6c-0.1-0.2-0.1-0.3-0.1-0.5c-0.2,0.4-0.6,0.6-1.1,0.6c-0.4,0-0.7-0.1-1-0.4c-0.3-0.3-0.4-0.6-0.4-1
	c0-0.4,0.2-0.9,0.5-1.2c0.4-0.3,0.9-0.5,1.3-0.4h0.6v-0.5c0.1-0.4-0.2-0.7-0.5-0.8c-0.1,0-0.2,0-0.2,0c-0.2,0-0.4,0.1-0.6,0.2
	c-0.1,0.1-0.2,0.3-0.2,0.5h-0.8c0-0.2,0.1-0.5,0.2-0.7c0.1-0.2,0.3-0.4,0.6-0.5c0.3-0.1,0.5-0.2,0.8-0.2c0.4,0,0.8,0.1,1.1,0.4
	c0.3,0.3,0.4,0.7,0.4,1.1v2.4c0,0.3,0,0.6,0.1,1v0.1H122.3z M121.3,74c0.2,0,0.4-0.1,0.5-0.2c0.2-0.1,0.3-0.2,0.4-0.4v-1.1h-0.4
	c-0.3,0-0.6,0.1-0.9,0.2c-0.2,0.2-0.3,0.4-0.3,0.7c0,0.2,0,0.4,0.2,0.6C120.9,73.9,121.1,74,121.3,74L121.3,74z M125.7,68.7v1.2h0.7
	v0.6h-0.7v2.9c0,0.1,0,0.3,0.1,0.4c0.1,0.1,0.2,0.2,0.3,0.1c0.1,0,0.2,0,0.3-0.1l0,0.7c-0.2,0.1-0.4,0.1-0.5,0.1
	c-0.3,0-0.5-0.1-0.7-0.3c-0.2-0.3-0.3-0.6-0.2-0.9v-3h-0.7v-0.6h0.7v-1.2L125.7,68.7z M127.7,72c0-0.6,0.1-1.2,0.5-1.6
	c0.3-0.4,0.8-0.6,1.3-0.6c0.5,0,1,0.2,1.3,0.6c0.4,0.5,0.5,1,0.5,1.6v0.5c0,0.6-0.1,1.2-0.5,1.6c-0.7,0.7-1.8,0.8-2.5,0.2
	c0,0-0.1-0.1-0.1-0.1c-0.4-0.5-0.5-1-0.5-1.6L127.7,72z M128.4,72.4c0,0.4,0.1,0.8,0.3,1.2c0.2,0.3,0.5,0.4,0.8,0.4
	c0.7,0,1-0.5,1.1-1.5V72c0-0.4-0.1-0.8-0.3-1.2c-0.2-0.3-0.5-0.4-0.8-0.4c-0.3,0-0.6,0.2-0.8,0.4c-0.2,0.3-0.3,0.7-0.3,1.1
	L128.4,72.4z M134.8,70.6c-0.1,0-0.2,0-0.4,0c-0.4,0-0.7,0.3-0.8,0.7v3.4h-0.8v-4.8h0.8l0,0.5c0.2-0.3,0.5-0.6,0.9-0.6
	c0.1,0,0.2,0,0.3,0.1L134.8,70.6z"/>
<path id="パス_43" class="st0" d="M192.9,26.6h1.9v0.7h-1.9V26.6z M192.9,25h1.9v0.6h-1.9V25z M198.2,25v0.6h-2V25H198.2z
	 M198.2,27.3h-2v-0.7h2V27.3z M199.5,28.2V24h-3.4v-0.6h4.2v-1.2h-4.2v-0.9h-1.3v0.9h-4.1v1.2h4.1V24h-3.2v4.2h2.2
	c-1,0.9-2.2,1.6-3.5,2.1c0.3,0.3,0.6,0.7,0.9,1.1c1.3-0.6,2.5-1.4,3.5-2.5v2.6h1.3v-2.7c1,1.1,2.2,2,3.6,2.6
	c0.3-0.4,0.6-0.8,0.9-1.1c-1.3-0.4-2.5-1.2-3.6-2.1H199.5z M208.1,29.8V26h3.6v-1.3h-3.6v-3.4h-1.4v3.4h-3.5V26h3.5v3.8h-4.2v1.3h10
	v-1.3H208.1z M216.7,25.1h1.1v-1.2h-1.1v-2.4h-1.2v2.4h-1.3v1.2h1.3v3.1c-0.5,0.2-1,0.4-1.4,0.5l0.5,1.3c1-0.5,2.3-1.1,3.4-1.6
	l-0.3-1.2c-0.3,0.1-0.7,0.3-1,0.4L216.7,25.1z M220.4,30.2c-0.7,0-0.8-0.1-0.8-0.7V26l0.9-0.4V29h1.2v-3.9l0.9-0.4
	c0,1.6,0,2.4,0,2.5c0,0.2-0.1,0.2-0.2,0.2c-0.2,0-0.4,0-0.5,0c0.2,0.3,0.2,0.7,0.3,1.1c0.4,0,0.8,0,1.1-0.2c0.4-0.2,0.6-0.5,0.6-0.9
	c0.1-0.5,0.1-1.8,0.1-3.9l0-0.2l-0.9-0.3l-0.2,0.2l-0.2,0.2l-0.9,0.4v-2.5h-1.2v3l-0.9,0.4v-2.4h-1.3v2.9l-1.1,0.5l0.5,1.2l0.6-0.2
	v2.8c0,1.5,0.4,1.9,1.9,1.9h2.3c1.3,0,1.7-0.5,1.9-2.1c-0.4-0.1-0.8-0.2-1.1-0.5c-0.1,1.1-0.2,1.4-0.8,1.4H220.4z M227.8,23.3h6.7
	v1.3h1.3v-2.4h-4v-0.9h-1.3v0.9h-4v2.4h1.3L227.8,23.3z M234.8,25.2c-0.5,0.4-1,0.8-1.5,1.2c-0.2-0.4-0.3-0.8-0.5-1.3h1.3V24h-5.9
	v1.1h1.6c-1.1,0.5-2.2,0.9-3.4,1.1c0.3,0.3,0.5,0.7,0.7,1c0.9-0.2,1.8-0.6,2.6-0.9c0.1,0.1,0.2,0.2,0.3,0.3
	c-1.1,0.7-2.2,1.1-3.4,1.4c0.3,0.3,0.5,0.6,0.7,1c1.2-0.4,2.3-1,3.3-1.6c0.1,0.1,0.1,0.3,0.2,0.4c-1.4,1-2.9,1.8-4.6,2.2
	c0.3,0.3,0.5,0.7,0.7,1.1c1.5-0.5,2.9-1.3,4.2-2.2c0.1,0.4-0.1,0.9-0.4,1.2c-0.2,0.2-0.4,0.3-0.7,0.2c-0.3,0-0.6,0-1.1-0.1
	c0.2,0.4,0.4,0.8,0.4,1.3c0.3,0,0.6,0,0.9,0c0.5,0,1-0.1,1.3-0.5c1.1-0.8,1.2-3.5-0.9-5.3c0.3-0.2,0.6-0.4,0.9-0.6h0
	c0.6,2.6,1.7,4.6,3.7,5.6c0.3-0.4,0.6-0.8,0.9-1.1c-1-0.5-1.9-1.2-2.5-2.2c0.7-0.4,1.4-0.8,2-1.3L234.8,25.2z M245.1,26.1l-0.5,0.3
	c0.2,0.1,0.4,0.3,0.5,0.4l-2.2,0.1c0.2-0.2,0.4-0.5,0.5-0.8H245.1z M246.1,22.8v0.7h-5.7v-0.7H246.1z M244.5,30.3v-0.8h2.6v-1h-2.6
	v-0.7l1.7-0.1c0.2,0.2,0.3,0.3,0.5,0.5l1.1-0.7c-0.5-0.6-1.1-1.1-1.7-1.5h1.6v-1h-7.3v-0.5h7v-2.8h-8.3V25c0,1.7-0.1,4.2-1.2,5.9
	c0.4,0.2,0.8,0.4,1.2,0.7c0.9-1.7,1.3-3.6,1.3-5.5h1.7c-0.2,0.3-0.3,0.6-0.5,0.8l-1.2,0l0.1,1c0.8,0,1.7-0.1,2.8-0.1v0.6h-2.6v1h2.6
	v0.8h-3.3v1h8v-1H244.5z M253.1,21.6h-2.8v1h2.8V21.6z M253.4,23.1h-3.6v1h3.6V23.1z M253.1,24.6h-2.9v1h2.9L253.1,24.6z
	 M250.2,27.1h2.9v-1h-2.9V27.1z M255.3,25.3v1h2.9v-1h-0.9v-0.7h0.9v-0.9h-0.9v-0.7h-1v0.7h-0.8v0.9h0.8v0.7H255.3z M257.2,27.8v1
	h-0.8v-1H257.2z M258.1,29.8v-2.9h-2.7v3.3h0.9v-0.4H258.1z M252.1,29.9h-0.9v-1.3h0.9V29.9z M259.7,21.7h-5.9v4.1
	c0.1,1.7-0.1,3.4-0.7,4.9v-3.1h-2.9v3.7h1V31h1.9c0.3,0.2,0.6,0.4,0.9,0.6c0.9-1.6,1-4.1,1-5.8v-3h3.5v7.3c0,0.2,0,0.2-0.2,0.2
	c-0.2,0-0.7,0-1.1,0c0.2,0.4,0.3,0.8,0.4,1.3c0.6,0.1,1.2,0,1.7-0.2c0.4-0.2,0.5-0.6,0.5-1.2V21.7z M263.7,26
	c0.9-0.5,1.7-1.2,2.4-2.1v1.8h1.3V24c0.7,0.8,1.5,1.5,2.5,2L263.7,26z M264.9,30.2v-0.5h3.7v0.5L264.9,30.2z M264.9,28.4h3.7v0.5
	h-3.7V28.4z M268.6,27.5h-3.7V27h3.7V27.5z M271.7,23.6v-1.1h-4.3v-1.2h-1.3v1.2h-4.2v1.1h3c-0.9,0.9-2,1.6-3.3,2
	c0.3,0.3,0.6,0.6,0.8,1c0.4-0.2,0.8-0.4,1.2-0.6v4.2h-1.8v1.1h9.9v-1.1H270V26c0.4,0.2,0.8,0.4,1.2,0.5c0.2-0.4,0.5-0.7,0.8-1
	c-1.3-0.4-2.4-1-3.4-1.9L271.7,23.6z M283.7,25.9v-1.3h-4.3v-3.3h-1.4v3.3h-4.2v1.3h4.2v3.9h-3.6v1.3h8.8v-1.3h-3.7v-3.9H283.7z
	 M293.1,29h-2v-0.5h2V29z M291.2,27h2v0.5h-2V27z M288.1,24.8v-0.5h1.7v0.5H288.1z M292.9,24.3v0.5h-1.8v-0.5H292.9z M295.6,27.5
	h-1.1v-1.4h-3.3v-0.5h3.1v-2.2h-3.1V23h4.2v-1h-4.2v-0.7h-1.3V22h-4.1v1h4.1v0.5h-3v2.2h3v0.5h-3.3V27h3.3v0.5h-4.4v1h4.4V29h-3.3
	V30h3.3v0.3c0,0.2-0.1,0.3-0.3,0.3c-0.2,0-0.8,0-1.4,0c0.2,0.3,0.3,0.7,0.4,1c0.7,0,1.3,0,1.9-0.2c0.4-0.2,0.6-0.5,0.6-1.1V30h2v0.5
	h1.3v-1.9h1.1V27.5z M304.8,27.4c0-0.3,0.1-0.6,0.1-1h-1.3c0,0.3-0.1,0.7-0.1,1h-1.6v1.1h1.3c-0.4,1-1.3,1.8-2.3,2
	c0.3,0.3,0.6,0.6,0.8,1c1.4-0.5,2.5-1.6,2.9-3.1h1.3c0,0.6-0.1,1.1-0.4,1.6c-0.1,0.1-0.2,0.1-0.4,0.1c-0.3,0-0.6,0-0.9-0.1
	c0.2,0.4,0.3,0.8,0.4,1.2c0.4,0,0.8,0,1.2,0c0.3,0,0.6-0.2,0.8-0.4c0.3-0.4,0.5-1.2,0.7-3.1c0-0.2,0-0.5,0-0.5L304.8,27.4z
	 M305.3,23.5c-0.2,0.4-0.4,0.7-0.7,0.9c-0.4-0.3-0.7-0.6-0.9-0.9H305.3z M307.4,23.5v-1.1h-3.2c0.2-0.2,0.3-0.5,0.4-0.8l-1.2-0.3
	c-0.5,1-1.2,1.9-2.1,2.6c0.4,0.2,0.7,0.5,1.1,0.7c0.2-0.1,0.3-0.3,0.5-0.5c0.2,0.3,0.5,0.6,0.8,0.9c-0.4,0.2-0.9,0.4-1.3,0.5l0-0.3
	l-0.8-0.3l-0.2,0.1h-0.5l0.5-0.6c-0.3-0.2-0.5-0.3-0.8-0.5c0.6-0.5,1.2-1.1,1.6-1.8l-0.8-0.5l-0.2,0h-3.6v1.1h2.6
	c-0.2,0.2-0.4,0.5-0.7,0.7c-0.3-0.1-0.6-0.3-0.9-0.4l-0.8,0.8c0.7,0.3,1.4,0.7,2.1,1.1h-2.5v1.1h1.4c-0.4,0.9-0.9,1.6-1.6,2.3
	c0.2,0.4,0.4,0.8,0.6,1.3c0.6-0.6,1-1.3,1.4-2v2.4c0,0.1,0,0.2-0.2,0.2c-0.1,0-0.6,0-1,0c0.2,0.4,0.3,0.8,0.4,1.2
	c0.5,0.1,1.1,0,1.6-0.2c0.4-0.2,0.5-0.6,0.5-1.1v-3.9h0.6c-0.1,0.5-0.2,1-0.4,1.5l0.9,0.4c0.2-0.6,0.4-1.2,0.5-1.8
	c0.1,0.1,0.2,0.3,0.3,0.5c0.8-0.2,1.5-0.5,2.2-0.9c0.7,0.4,1.5,0.7,2.2,0.9c0.2-0.4,0.5-0.8,0.8-1.1c-0.7-0.1-1.4-0.3-2-0.6
	c0.5-0.5,0.8-1,1.1-1.6L307.4,23.5z M314.3,21.8h-4.9V23h4.9V21.8z M312.8,25v1.4H311V25H312.8z M314,27.6v-3.7h-4.3v2.8
	c0.1,1.4-0.2,2.9-0.8,4.2c0.4,0.2,0.7,0.5,1,0.8c0.6-1.2,1-2.6,1-4H314z M319.5,25h-3.5v-1.4c1.2-0.3,2.4-0.7,3.5-1.2l-1.2-1
	c-0.8,0.5-1.8,0.8-2.7,1.1l-0.9-0.2v3c0,1.6-0.2,3.8-1.7,5.4c0.4,0.2,0.7,0.5,1,0.9c1.3-1.5,2-3.3,2-5.3h1.3v5.3h1.3v-5.3h1
	L319.5,25z"/>
<path id="パス_44" class="st0" d="M194.5,8.8c-0.2-0.3-1-1.6-1.3-2V6.5h1.3V5.3h-1.3v-2h-1.3v2h-1.4v1.2h1.4
	c-0.3,1.3-0.8,2.6-1.6,3.7c0.2,0.4,0.5,0.9,0.6,1.3c0.4-0.7,0.8-1.5,1-2.3v4.3h1.3V8.5c0.2,0.5,0.4,0.9,0.6,1.2L194.5,8.8z M200.5,9
	V7.9h-2.3V6.4h2.1V5.2h-2.1V3.3h-1.3v1.9h-0.7c0.1-0.4,0.2-0.8,0.2-1.2l-1.2-0.2c-0.1,1.1-0.5,2.2-1,3.2c0.4,0.2,0.7,0.4,1,0.6
	c0.3-0.4,0.5-0.9,0.6-1.3h1v1.5h-2.4V9h1.8c-0.6,1.2-1.4,2.3-2.5,3c0.3,0.3,0.6,0.6,0.9,1c0.9-0.7,1.7-1.7,2.2-2.8v3.3h1.3v-3.4
	c0.4,1,1,2,1.7,2.8c0.3-0.4,0.6-0.7,0.9-1c-0.9-0.8-1.6-1.8-2-2.9L200.5,9z M205.8,8.9h1.8V7.7h-4.7v1.3h1.7v2.7
	c-0.8,0.1-1.5,0.2-2.1,0.3l0.4,1.3c1.4-0.3,3.4-0.7,5.2-1.1l-0.1-1.2c-0.7,0.1-1.4,0.3-2,0.4L205.8,8.9z M212.3,6.4V5.2h-1l0.7-0.6
	c-0.4-0.5-0.9-0.9-1.4-1.2L209.7,4c0.5,0.3,0.9,0.7,1.3,1.2h-1.7c0-0.6,0-1.2,0-1.8h-1.4c0,0.6,0,1.2,0,1.8h-5.4v1.3h5.5
	c0.3,3.9,1.1,7.1,3,7.1c1,0,1.5-0.5,1.7-2.6c-0.4-0.2-0.8-0.4-1.1-0.8c-0.1,1.4-0.2,2-0.4,2c-0.8,0-1.5-2.5-1.7-5.8L212.3,6.4z
	 M217.2,6.6c0.8-0.6,1.4-1.3,2-2c0.6,0.8,1.3,1.5,2.1,2L217.2,6.6z M216.7,7.8h5.1V6.9c0.6,0.4,1.2,0.8,1.9,1.1
	c0.2-0.4,0.5-0.8,0.8-1.2c-1.9-0.7-3.5-1.9-4.7-3.5h-1.4c-1.1,1.6-2.7,2.9-4.4,3.7c0.3,0.3,0.6,0.7,0.8,1.1c0.6-0.3,1.3-0.7,1.9-1.1
	L216.7,7.8z M214.8,9.9h2.6c-0.2,0.7-0.5,1.3-0.8,2l-1.7,0.1l0.2,1.3c1.9-0.1,4.6-0.2,7.2-0.3c0.2,0.2,0.3,0.4,0.4,0.7l1.2-0.7
	c-0.7-1-1.6-2-2.5-2.8l-1.2,0.6c0.4,0.4,0.7,0.7,1.1,1.1c-1.1,0-2.3,0.1-3.3,0.1c0.3-0.6,0.7-1.3,1-1.9h4.9V8.7h-9.1L214.8,9.9z
	 M230.9,9.5c-0.2-0.2-1.1-1-1.6-1.4c0.5-0.7,1-1.5,1.3-2.4l-0.7-0.5l-0.2,0.1h-0.5v-2h-1.3v2h-1.6v1.2h2.7c-0.7,1.3-1.8,2.3-3.1,3.1
	c0.3,0.4,0.5,0.8,0.6,1.2c0.5-0.3,0.9-0.7,1.4-1.1v3.8h1.3V9.4c0.4,0.4,0.7,0.8,1,1.2L230.9,9.5z M234,12v-4h2.1V6.7H234V3.4h-1.3
	v3.3h-2.1v1.3h2.1v4h-2.5v1.3h6.2V12H234z M240.4,8.6h1.9v0.7h-1.9V8.6z M240.4,7h1.9v0.6h-1.9V7z M245.7,7v0.6h-2V7H245.7z
	 M245.7,9.3h-2V8.6h2V9.3z M247,10.2V6h-3.4V5.4h4.2V4.2h-4.2V3.3h-1.4v0.9h-4.1v1.2h4.1V6h-3.2v4.2h2.2c-1,0.9-2.2,1.6-3.5,2.1
	c0.3,0.3,0.6,0.7,0.9,1.1c1.3-0.6,2.5-1.4,3.5-2.5v2.6h1.4v-2.7c1,1.1,2.2,2,3.6,2.6c0.3-0.4,0.6-0.8,0.9-1.1
	c-1.3-0.4-2.5-1.2-3.6-2.1L247,10.2z M255.6,11.8V8h3.6V6.7h-3.6V3.3h-1.4v3.4h-3.5V8h3.5v3.8h-4.2v1.3h10v-1.3H255.6z M264.2,7.1
	h1.1V5.8h-1.1V3.4H263v2.4h-1.3v1.2h1.3v3.1c-0.6,0.2-1,0.4-1.4,0.5l0.5,1.3c1-0.5,2.3-1.1,3.4-1.6l-0.3-1.2c-0.3,0.1-0.7,0.3-1,0.4
	L264.2,7.1z M267.9,12.2c-0.7,0-0.8-0.1-0.8-0.7V8l0.9-0.4V11h1.2V7.1l0.9-0.4c0,1.6,0,2.4,0,2.5c0,0.2-0.1,0.2-0.2,0.2
	c-0.2,0-0.4,0-0.5,0c0.2,0.3,0.2,0.7,0.3,1.1c0.4,0,0.8,0,1.1-0.2c0.4-0.2,0.6-0.5,0.6-0.9c0.1-0.5,0.1-1.8,0.1-3.9l0-0.2l-0.9-0.3
	l-0.2,0.2l-0.2,0.2l-0.9,0.4V3.3h-1.2v3l-0.9,0.4V4.3h-1.3v2.9l-1.1,0.5l0.5,1.2l0.6-0.2v2.8c0,1.5,0.4,1.9,1.9,1.9h2.3
	c1.3,0,1.7-0.5,1.8-2.1c-0.4-0.1-0.8-0.2-1.1-0.5c-0.1,1.1-0.2,1.4-0.8,1.4L267.9,12.2z M281.6,4.4h-1.1v6.4h1.1V4.4z M276.4,4.4
	c-0.5-0.4-1.1-0.8-1.7-1l-0.7,1c0.6,0.3,1.2,0.7,1.7,1.1L276.4,4.4z M276,7.3c-0.5-0.4-1.1-0.7-1.8-1l-0.7,1
	c0.6,0.3,1.2,0.6,1.7,1.1L276,7.3z M275.1,9.2c-0.4,1.2-0.9,2.4-1.4,3.5l1.2,0.7c0.5-1.1,0.9-2.3,1.3-3.5L275.1,9.2z M276.9,11
	c-0.3,0.7-0.8,1.4-1.3,1.9c0.4,0.2,0.7,0.4,1,0.7c0.6-0.7,1.1-1.5,1.5-2.3L276.9,11z M278.4,11.4c0.4,0.5,0.8,1.1,1.1,1.7l1-0.6
	c-0.3-0.6-0.7-1.2-1.2-1.7L278.4,11.4z M278.7,5.8h-1.1V4.8h1.1V5.8z M278.7,7.7h-1.1V6.8h1.1V7.7z M278.7,9.7h-1.1V8.8h1.1V9.7z
	 M279.9,3.7h-3.3v7.2h3.3V3.7z M282.2,3.3v8.8c0,0.2-0.1,0.2-0.2,0.2c-0.2,0-0.7,0-1.3,0c0.2,0.4,0.3,0.8,0.4,1.3
	c0.6,0.1,1.2,0,1.8-0.3c0.4-0.2,0.5-0.5,0.5-1.2V3.3H282.2z M292.8,4.6h-4.6V4.3h4.6V4.6z M292.8,5.7h-4.6V5.3h4.6V5.7z M294.1,3.6
	H287v2.7h7.2V3.6z M295.5,6.7h-10v0.9h10V6.7z M288,10V9.7h1.9V10H288z M288,8.6h1.9V9H288V8.6z M293.1,9h-1.9V8.6h1.9V9z M293.1,10
	h-1.9V9.7h1.9V10z M291.2,12.3v-0.4h3.4v-0.8h-3.4v-0.4h3.2V7.9h-7.6v2.8h3.1v0.4h-3.4v0.8h3.4v0.4h-4.3v0.9h10v-0.9L291.2,12.3z"/>
<g id="グループ_1877">
	<path id="パス_25" class="st0" d="M116.7,17.3c0.7-1.4,1.4-2.9,2.1-4.3c0.7-1.5,1.5-3,2.2-4.5c0.7-1.4,1.3-2.7,2-4.1
		c0.3-0.8,0.8-1.6,1.3-2.3c0.4-0.5,0.9-1,1.5-1.3c1-0.5,2.1-0.8,3.2-0.8c1.7,0,3.4,0,5,0c0.4,0,0.4,0,0.4,0.4c0,10.7,0,21.4,0,32.1
		c0,0.5,0,0.5-0.5,0.5h-6c-0.5,0-0.5,0-0.5-0.5c0-7,0-14,0-21v-0.4l-0.1,0c-0.1,0.3-0.3,0.5-0.4,0.8c-0.4,0.9-0.9,1.8-1.3,2.7
		c-0.9,1.9-1.9,3.9-2.8,5.8c-0.9,1.8-1.8,3.7-2.7,5.5c-0.7,1.4-1.4,2.8-2.1,4.3c-0.2,0.5-0.6,0.9-1.1,1.1c-0.5,0.1-1.1-0.1-1.4-0.5
		c-0.4-0.7-0.8-1.5-1.1-2.2c-0.8-1.6-1.6-3.2-2.4-4.8c-0.9-1.9-1.9-3.8-2.8-5.7c-0.9-1.9-1.8-3.7-2.7-5.6c-0.2-0.4-0.4-0.8-0.5-1.2
		l-0.1,0v21.3c0,0.5,0,0.5-0.5,0.5h-5.9C99,33,99,33,99,32.5V17.1c0-5.5,0-11.1,0-16.6C99,0,99,0,99.4,0c1.7,0,3.4,0,5.2,0
		c1.1,0,2.2,0.3,3.1,0.8c0.8,0.5,1.5,1.2,1.9,2c0.7,1.5,1.5,2.9,2.2,4.4c0.9,1.9,1.8,3.8,2.8,5.7c0.7,1.3,1.3,2.7,2,4
		C116.6,17.1,116.7,17.2,116.7,17.3"/>
	<path id="パス_26" class="st0" d="M65.7,9.5c0-3,0-6,0-9c0-0.3,0.1-0.4,0.4-0.4c2.1,0,4.1,0,6.2,0c0.4,0,0.4,0,0.4,0.4
		c0,5.5,0,10.9,0,16.4c0,1.6,0.5,3.2,1.5,4.5c1.6,2.2,4.2,3.5,6.9,3.4c1.5-0.1,3-0.6,4.3-1.5c1.6-1.2,2.8-2.9,3.2-4.8
		c0.1-0.6,0.2-1.1,0.2-1.7c0-5.4,0-10.8,0-16.3c0-0.3,0.1-0.4,0.4-0.4c2,0,4.1,0,6.1,0c0.4,0,0.4,0,0.4,0.4v16.9c0,0.5,0,1,0,1.6
		c0,1.1-0.2,2.3-0.5,3.4c-0.5,1.8-1.4,3.5-2.6,5c-0.4,0.5-0.9,1.1-1.3,1.5c-1.3,1.3-2.9,2.4-4.7,3.1c-1,0.4-2,0.7-3,0.9
		c-0.6,0.1-1.3,0.2-2,0.2c-0.3,0-0.5,0.1-0.8,0.1c-1.9,0-3.8-0.3-5.6-1c-1.3-0.5-2.6-1.2-3.7-2.1c-0.5-0.4-0.9-0.8-1.4-1.2
		c-1.4-1.4-2.5-3-3.3-4.8c-0.4-1-0.7-2-0.9-3c-0.1-0.6-0.2-1.3-0.2-2C65.7,15.9,65.7,12.7,65.7,9.5L65.7,9.5"/>
	<path id="パス_27" class="st0" d="M43,28.2h20.4c0.5,0,0.5,0,0.5,0.5c0,1.3,0,2.5,0,3.8c0,0.4,0,0.5-0.5,0.5
		c-9.4,0-18.8,0-28.2,0c-0.3,0-0.4-0.1-0.4-0.4c0-0.9,0-1.7,0-2.6c0.1-1.8,0.6-3.5,1.4-5c0.6-1,1.3-1.9,2.1-2.7
		c0.6-0.6,1.2-1.2,1.8-1.8c1.2-1.2,2.3-2.4,3.5-3.6c1-1,1.9-2,2.9-2.9l3-3.1l2.9-3l2.8-2.9c0,0,0.1-0.1,0.2-0.2H35.3
		c-0.4,0-0.4,0-0.4-0.4c0-1.3,0-2.6,0-3.8c0-0.5,0-0.5,0.4-0.5h28.2c0.5,0,0.5,0,0.5,0.5c0,0.8,0,1.5,0,2.3
		c-0.1,1.8-0.5,3.6-1.4,5.1c-0.6,0.9-1.2,1.8-2,2.6c-0.9,0.9-1.7,1.7-2.6,2.6c-1.4,1.4-2.8,2.8-4.1,4.2c-1.2,1.2-2.4,2.4-3.5,3.6
		l-3.6,3.6L43.3,28C43.2,28,43.1,28.1,43,28.2"/>
	<path id="パス_28" class="st0" d="M33.4,33c-0.1,0-0.3,0.1-0.4,0.1c-2.3,0-4.6,0-6.9,0c-0.2,0-0.4-0.1-0.5-0.3
		c-0.8-1.6-1.5-3.2-2.3-4.8c-0.4-0.9-0.9-1.9-1.3-2.8l-2.2-4.6c-0.7-1.4-1.4-2.9-2.1-4.3c-0.6-1.2-1.8-3.7-1.8-3.7L8.3,28.2h0.4
		c3.8,0,7.6,0,11.4,0c0.3,0,0.5,0.1,0.6,0.4c0.3,0.8,0.7,1.6,1.1,2.4c0.3,0.6,0.6,1.3,0.9,2C22.5,33,22.4,33,22.2,33
		c-6.5,0-13,0-19.5,0c-1.4,0-2.5-1-2.7-2.4c-0.1-0.6,0-1.3,0.3-1.9c0.7-1.5,1.4-3,2.2-4.6c0.6-1.4,1.3-2.7,1.9-4.1l2.1-4.3
		c0.7-1.4,1.3-2.8,2-4.2s1.3-2.8,2-4.2c0.7-1.4,1.3-2.8,2-4.2c0.3-0.7,0.7-1.5,1.1-2.2c0.4-0.6,1-1,1.7-1.1c1.7-0.2,2.6,0.7,3.3,2.1
		c0.4,0.9,0.8,1.7,1.2,2.6c0.9,1.9,1.8,3.7,2.7,5.6c0.6,1.3,1.3,2.6,1.9,3.9c0.7,1.4,1.4,2.9,2.1,4.3l1.9,4l2,4.2
		c0.6,1.4,1.3,2.7,1.9,4.1C32.7,31.4,33,32.2,33.4,33"/>
	<path id="パス_29" class="st0" d="M168.2,33.1c-1.6,0-3.3,0-4.9,0c-0.2,0-0.4-0.1-0.5-0.3c-1-2-1.9-4.1-2.9-6.1
		c-0.3-0.5-0.5-1.1-0.8-1.6c0-0.1-0.2-0.2-0.3-0.2c-4.1,0-8.1,0-12.2,0c-0.2,0-0.3,0.1-0.3,0.2c-0.9,1.9-1.8,3.8-2.7,5.7
		c-0.3,0.6-0.6,1.3-0.9,1.9c-0.1,0.2-0.3,0.3-0.4,0.3c-2.2,0-4.4,0-6.6,0c-0.3,0-0.3-0.1-0.2-0.3c0.5-1.1,1.1-2.2,1.6-3.3
		c0.7-1.5,1.5-3.1,2.2-4.6c0.7-1.5,1.4-2.9,2.1-4.4c0.7-1.5,1.5-3,2.2-4.6c0.7-1.5,1.4-3,2.1-4.4c0.7-1.5,1.5-3.1,2.2-4.6
		c0.7-1.4,1.4-2.9,2.1-4.3c0.2-0.5,0.5-1,0.8-1.5c0.4-0.6,1-0.9,1.7-1c1.2-0.2,2.3,0.4,2.8,1.5c0.7,1.5,1.5,3.1,2.2,4.6
		c0.6,1.3,1.2,2.6,1.8,3.9c0.9,1.9,1.8,3.7,2.7,5.6c0.6,1.3,1.3,2.6,1.9,3.9c0.9,1.9,1.8,3.8,2.7,5.7c0.6,1.3,1.2,2.6,1.8,3.9
		c0.6,1.2,1.1,2.3,1.7,3.5c0.1,0.2,0,0.4-0.2,0.4C169.2,33.1,168.7,33.1,168.2,33.1C168.2,33.1,168.2,33.1,168.2,33.1 M156.8,20.4
		l-4.1-8.6l-4,8.6H156.8z"/>
</g>
</svg>
